<svg width="15" height="15" viewBox="0 0 15 15" fill="none" xmlns="http://www.w3.org/2000/svg">
<path d="M7.49984 9.60319C7.49984 11.214 6.194 12.5199 4.58317 12.5199C2.97234 12.5199 1.6665 11.214 1.6665 9.60319C1.6665 7.99237 2.97234 6.68652 4.58317 6.68652C6.194 6.68652 7.49984 7.99237 7.49984 9.60319Z" stroke="black"/>
<path d="M11 11.6445C11 12.1278 10.6082 12.5195 10.125 12.5195C9.64177 12.5195 9.25 12.1278 9.25 11.6445C9.25 11.1613 9.64177 10.7695 10.125 10.7695C10.6082 10.7695 11 11.1613 11 11.6445Z" stroke="black"/>
<path d="M4.58776 9.60254H4.58252" stroke="black" stroke-linecap="round" stroke-linejoin="round"/>
<path d="M3.99984 6.6862L3.63356 3.75602C3.5491 3.08028 3.50686 2.7424 3.32928 2.49885C3.22919 2.36158 3.10033 2.24782 2.9517 2.16553C2.68801 2.01953 2.3475 2.01953 1.6665 2.01953" stroke="black" stroke-linecap="round"/>
<path d="M4 4.35254H7.20833C8.58325 4.35254 9.27071 4.35254 9.69788 4.77967C10.125 5.20681 10.125 5.89428 10.125 7.26921V10.7692" stroke="black" stroke-linecap="round"/>
<path d="M7.5 8.43652H9.84739C10.3636 8.43652 10.6217 8.43652 10.8468 8.5466C10.9007 8.57296 10.9526 8.60377 11.0023 8.63882C11.2098 8.78524 11.353 9.02318 11.6393 9.49901C11.8686 9.87998 11.9832 10.0705 12.1549 10.1445C12.1953 10.1619 12.2374 10.1742 12.2802 10.1813C12.4625 10.2115 12.6473 10.1091 13.0169 9.90437L13.3333 9.72907" stroke="black" stroke-linecap="round"/>
</svg>
