<svg width="15" height="15" viewBox="0 0 15 15" fill="none" xmlns="http://www.w3.org/2000/svg">
<path d="M9.77483 1.43578C9.5249 1.1868 9.18651 1.04697 8.83372 1.0469H6.16594C5.99048 1.04587 5.81657 1.07966 5.65427 1.14633C5.49197 1.213 5.34451 1.31121 5.22044 1.43528C5.09637 1.55935 4.99816 1.70681 4.93149 1.86911C4.86482 2.03141 4.83102 2.20532 4.83205 2.38078V4.158H5.72261V2.38078C5.72209 2.32242 5.7332 2.26454 5.7553 2.21051C5.77739 2.15649 5.81003 2.10741 5.8513 2.06614C5.89257 2.02487 5.94165 1.99223 5.99567 1.97014C6.0497 1.94804 6.10758 1.93693 6.16594 1.93745H8.83372C8.89153 1.93692 8.94885 1.948 9.0023 1.97005C9.05574 1.99209 9.10421 2.02465 9.14483 2.06578C9.18696 2.10667 9.22039 2.15565 9.24311 2.20978C9.26584 2.26391 9.27738 2.32208 9.27705 2.38078V4.158H10.1676V2.38078C10.1667 2.02626 10.0255 1.68652 9.77483 1.43578Z" fill="black"/>
<path fill-rule="evenodd" clip-rule="evenodd" d="M11.1086 5.43383C10.8587 5.18485 10.5203 5.04502 10.1675 5.04495H4.83196C4.6565 5.04391 4.48258 5.07771 4.32028 5.14438C4.15798 5.21105 4.01052 5.30926 3.88646 5.43333C3.76239 5.5574 3.66417 5.70486 3.5975 5.86716C3.53084 6.02946 3.49704 6.20338 3.49807 6.37883V12.1577C3.49807 12.5115 3.6386 12.8508 3.88876 13.1009C4.13891 13.3511 4.47819 13.4916 4.83196 13.4916H10.1675C10.5213 13.4916 10.8606 13.3511 11.1107 13.1009C11.3609 12.8508 11.5014 12.5115 11.5014 12.1577V6.37883C11.5005 6.02431 11.3593 5.68457 11.1086 5.43383ZM6.16585 11.7144H5.27918V6.82606H6.16974L6.16585 11.7144ZM7.94307 11.7144H7.0564V6.82606H7.94696L7.94307 11.7144ZM9.72029 11.7144H8.83363V6.82606H9.72418L9.72029 11.7144Z" fill="black"/>
</svg>
