<svg width="48" height="49" viewBox="0 0 48 49" fill="none" xmlns="http://www.w3.org/2000/svg">
<g clip-path="url(#clip0_20_4186)">
<g clip-path="url(#clip1_20_4186)">
<g clip-path="url(#clip2_20_4186)">
<mask id="mask0_20_4186" style="mask-type:luminance" maskUnits="userSpaceOnUse" x="0" y="0" width="48" height="49">
<path d="M48 0.75H0V48.75H48V0.75Z" fill="white"/>
</mask>
<g mask="url(#mask0_20_4186)">
<path d="M24.87 27.9598H23.13C22.8615 27.9598 22.6039 27.8531 22.4141 27.6633C22.2242 27.4734 22.1175 27.2158 22.1175 26.9473C22.1175 26.6788 22.2242 26.4212 22.4141 26.2314C22.6039 26.0415 22.8615 25.9348 23.13 25.9348H27.135C27.3578 25.9564 27.5826 25.9312 27.7951 25.8607C28.0076 25.7903 28.203 25.6762 28.3687 25.5257C28.5344 25.3753 28.6669 25.1919 28.7575 24.9872C28.8482 24.7825 28.895 24.5611 28.895 24.3373C28.895 24.1135 28.8482 23.8921 28.7575 23.6874C28.6669 23.4828 28.5344 23.2993 28.3687 23.1489C28.203 22.9984 28.0076 22.8843 27.7951 22.8139C27.5826 22.7434 27.3578 22.7182 27.135 22.7398H25.635V21.9148C25.5965 21.5178 25.4115 21.1494 25.1162 20.8813C24.8209 20.6133 24.4363 20.4648 24.0375 20.4648C23.6387 20.4648 23.2541 20.6133 22.9588 20.8813C22.6634 21.1494 22.4785 21.5178 22.44 21.9148V22.8148C21.4015 22.9922 20.4676 23.5535 19.8235 24.3873C19.1794 25.221 18.8722 26.2664 18.9628 27.3161C19.0535 28.3657 19.5353 29.343 20.3127 30.0541C21.0901 30.7651 22.1064 31.158 23.16 31.1548H24.9C25.1685 31.1548 25.4261 31.2615 25.6159 31.4514C25.8058 31.6412 25.9125 31.8988 25.9125 32.1673C25.9125 32.4358 25.8058 32.6934 25.6159 32.8833C25.4261 33.0731 25.1685 33.1798 24.9 33.1798H20.865C20.6422 33.1582 20.4174 33.1834 20.2049 33.2539C19.9924 33.3243 19.797 33.4384 19.6313 33.5889C19.4656 33.7393 19.3331 33.9228 19.2425 34.1274C19.1518 34.3321 19.105 34.5535 19.105 34.7773C19.105 35.0011 19.1518 35.2225 19.2425 35.4272C19.3331 35.6319 19.4656 35.8153 19.6313 35.9657C19.797 36.1162 19.9924 36.2303 20.2049 36.3007C20.4174 36.3712 20.6422 36.3964 20.865 36.3748H22.365V37.1998C22.4035 37.5968 22.5884 37.9652 22.8838 38.2333C23.1791 38.5013 23.5637 38.6498 23.9625 38.6498C24.3613 38.6498 24.7459 38.5013 25.0412 38.2333C25.3365 37.9652 25.5215 37.5968 25.56 37.1998V36.2998C26.5985 36.1224 27.5324 35.5611 28.1765 34.7274C28.8206 33.8936 29.1278 32.8482 29.0372 31.7985C28.9465 30.7489 28.4647 29.7716 27.6873 29.0606C26.9098 28.3495 25.8936 27.9566 24.84 27.9598H24.87Z" fill="#181A1F"/>
<path d="M30.0899 11.3851L29.0699 7.87507C28.8766 7.22452 28.4822 6.65196 27.9432 6.23961C27.4042 5.82727 26.7483 5.59637 26.0699 5.58007H25.6649C25.6635 5.36879 25.7039 5.15934 25.7837 4.96371C25.8635 4.76808 25.9812 4.59013 26.1299 4.44007C26.2679 4.27987 26.4416 4.15434 26.637 4.07357C26.8324 3.9928 27.0441 3.95906 27.2549 3.97507H30.4349C31.2876 3.97903 32.1041 4.32056 32.7056 4.92494C33.3072 5.52931 33.6449 6.34734 33.6449 7.20007C33.6834 7.59705 33.8683 7.96546 34.1637 8.23352C34.459 8.50159 34.8435 8.65009 35.2424 8.65009C35.6412 8.65009 36.0258 8.50159 36.3211 8.23352C36.6164 7.96546 36.8014 7.59705 36.8399 7.20007C36.8419 6.35375 36.6769 5.51536 36.3544 4.73289C36.0319 3.95043 35.5582 3.23927 34.9604 2.64014C34.3627 2.041 33.6526 1.56566 32.8709 1.24133C32.0892 0.917007 31.2512 0.750065 30.4049 0.750068H27.1949C26.5656 0.746713 25.942 0.86829 25.3601 1.10775C24.7781 1.34721 24.2495 1.6998 23.8049 2.14507C22.9033 3.0491 22.3964 4.27332 22.3949 5.55007H21.9899C21.3114 5.56637 20.6556 5.79727 20.1166 6.20961C19.5776 6.62196 19.1831 7.19452 18.9899 7.84507L17.9699 11.3551C13.6532 12.802 9.99183 15.7369 7.64012 19.6352C5.2884 23.5335 4.39964 28.1411 5.13269 32.6344C5.86574 37.1277 8.17282 41.2138 11.6416 44.1626C15.1103 47.1113 19.5147 48.7303 24.0674 48.7303C28.6201 48.7303 33.0244 47.1113 36.4932 44.1626C39.9619 41.2138 42.269 37.1277 43.0021 32.6344C43.7351 28.1411 42.8464 23.5335 40.4946 19.6352C38.1429 15.7369 34.4815 12.802 30.1649 11.3551L30.0899 11.3851ZM21.9899 8.77507H25.9949L26.6549 11.0401H21.3449L21.9899 8.77507ZM23.9999 45.5551C20.1698 45.5321 16.4752 44.1351 13.5882 41.6182C10.7011 39.1013 8.8134 35.6317 8.26843 31.8405C7.72346 28.0493 8.55743 24.1885 10.6187 20.9603C12.6799 17.732 15.8314 15.3509 19.4999 14.2501H28.4999C32.1684 15.3509 35.3199 17.732 37.3811 20.9603C39.4423 24.1885 40.2763 28.0493 39.7313 31.8405C39.1864 35.6317 37.2987 39.1013 34.4116 41.6182C31.5245 44.1351 27.83 45.5321 23.9999 45.5551Z" fill="#181A1F"/>
<path d="M37.26 11.5061L38.85 13.1111C39.1527 13.407 39.5592 13.5727 39.9825 13.5727C40.4058 13.5727 40.8123 13.407 41.115 13.1111C41.4145 12.8103 41.5827 12.4031 41.5827 11.9786C41.5827 11.5541 41.4145 11.1469 41.115 10.8461L39.525 9.25605C39.2187 8.98721 38.8215 8.845 38.4141 8.85827C38.0068 8.87154 37.6197 9.0393 37.3315 9.32751C37.0433 9.61572 36.8755 10.0028 36.8622 10.4102C36.849 10.8176 36.9912 11.2147 37.26 11.5211V11.5061Z" fill="#181A1F"/>
<path d="M39.1951 7.97903C39.404 7.97921 39.6108 7.93824 39.8039 7.85846C39.9969 7.77867 40.1723 7.66163 40.3201 7.51403L41.9251 5.90903C42.0901 5.7642 42.2237 5.58706 42.3175 5.38854C42.4114 5.19003 42.4635 4.97438 42.4706 4.75492C42.4778 4.53547 42.4398 4.31688 42.3591 4.11268C42.2784 3.90848 42.1566 3.72302 42.0014 3.56776C41.8461 3.4125 41.6606 3.29074 41.4564 3.21003C41.2522 3.12932 41.0337 3.09136 40.8142 3.09851C40.5947 3.10566 40.3791 3.15777 40.1806 3.2516C39.9821 3.34543 39.8049 3.47899 39.6601 3.64403L38.0551 5.24903C37.8346 5.47338 37.6848 5.7576 37.6245 6.06636C37.5642 6.37512 37.5959 6.6948 37.7158 6.98566C37.8356 7.27653 38.0383 7.52576 38.2987 7.70237C38.559 7.87898 38.8655 7.97519 39.1801 7.97903H39.1951Z" fill="#181A1F"/>
</g>
</g>
</g>
</g>
<defs>
<clipPath id="clip0_20_4186">
<rect width="48" height="48" fill="white" transform="translate(0 0.75)"/>
</clipPath>
<clipPath id="clip1_20_4186">
<rect width="48" height="48" fill="white" transform="translate(0 0.75)"/>
</clipPath>
<clipPath id="clip2_20_4186">
<rect width="48" height="48" fill="white" transform="translate(0 0.75)"/>
</clipPath>
</defs>
</svg>
