<svg width="48" height="49" viewBox="0 0 48 49" fill="none" xmlns="http://www.w3.org/2000/svg">
<g clip-path="url(#clip0_20_4175)">
<g clip-path="url(#clip1_20_4175)">
<mask id="mask0_20_4175" style="mask-type:luminance" maskUnits="userSpaceOnUse" x="0" y="0" width="48" height="49">
<path d="M48 0.75H0V48.75H48V0.75Z" fill="white"/>
</mask>
<g mask="url(#mask0_20_4175)">
<path d="M23.9999 48.7499C23.1587 48.7525 22.3314 48.5353 21.5999 48.1199L13.5899 43.5149C10.8954 41.9627 8.6566 39.7292 7.09798 37.0385C5.53935 34.3478 4.7158 31.2944 4.70996 28.1849V12.1799C4.71989 11.268 4.98698 10.3774 5.48054 9.6105C5.9741 8.84364 6.67407 8.23164 7.49996 7.84488L20.5199 1.54488C21.607 1.01791 22.7994 0.744141 24.0074 0.744141C25.2155 0.744141 26.4078 1.01791 27.4949 1.54488L40.4999 7.84488C41.3169 8.24127 42.006 8.85927 42.4887 9.6284C42.9714 10.3975 43.2282 11.2868 43.2299 12.1949V28.1849C43.2241 31.2944 42.4005 34.3478 40.8419 37.0385C39.2833 39.7292 37.0444 41.9627 34.3499 43.5149L26.3999 48.1049C25.6696 48.5249 24.8424 48.7472 23.9999 48.7499ZM23.9999 3.95988C23.2777 3.96098 22.565 4.12505 21.9149 4.43988L8.83496 10.7399C8.55432 10.8754 8.31873 11.089 8.15644 11.3551C7.99414 11.6211 7.91204 11.9283 7.91996 12.2399V28.1849C7.92453 30.7281 8.59769 33.2254 9.87193 35.4264C11.1461 37.6273 12.9767 39.4546 15.1799 40.7249L23.1899 45.3149C23.4344 45.4543 23.711 45.5276 23.9924 45.5276C24.2739 45.5276 24.5504 45.4543 24.7949 45.3149L32.8049 40.7249C35.0082 39.4546 36.8387 37.6273 38.113 35.4264C39.3872 33.2254 40.0604 30.7281 40.0649 28.1849V12.1799C40.0728 11.8683 39.9907 11.5611 39.8284 11.2951C39.6662 11.029 39.4306 10.8154 39.1499 10.6799L26.0849 4.43988C25.4349 4.12505 24.7222 3.96098 23.9999 3.95988Z" fill="#181A1F"/>
<path d="M22.395 31.0489C22.1837 31.0503 21.9742 31.0099 21.7786 30.9301C21.583 30.8503 21.405 30.7326 21.255 30.5839L16.5 25.7689C16.1976 25.4666 16.0278 25.0565 16.0278 24.6289C16.0278 24.2013 16.1976 23.7913 16.5 23.4889C16.8023 23.1866 17.2124 23.0167 17.64 23.0167C18.0676 23.0167 18.4776 23.1866 18.78 23.4889L22.5 27.2689L31.005 20.2489C31.3283 20.0898 31.6958 20.0441 32.0482 20.1192C32.4007 20.1943 32.7176 20.3859 32.948 20.663C33.1783 20.9401 33.3087 21.2867 33.3181 21.6469C33.3276 22.0072 33.2155 22.3601 33 22.6489L23.415 30.7489C23.1189 30.9619 22.7592 31.0677 22.395 31.0489Z" fill="#181A1F"/>
</g>
</g>
</g>
<defs>
<clipPath id="clip0_20_4175">
<rect width="48" height="48" fill="white" transform="translate(0 0.75)"/>
</clipPath>
<clipPath id="clip1_20_4175">
<rect width="48" height="48" fill="white" transform="translate(0 0.75)"/>
</clipPath>
</defs>
</svg>
