<svg width="48" height="49" viewBox="0 0 48 49" fill="none" xmlns="http://www.w3.org/2000/svg">
<g clip-path="url(#clip0_20_4200)">
<g clip-path="url(#clip1_20_4200)">
<g clip-path="url(#clip2_20_4200)">
<mask id="mask0_20_4200" style="mask-type:luminance" maskUnits="userSpaceOnUse" x="0" y="0" width="48" height="49">
<path d="M48 0.75H0V48.75H48V0.75Z" fill="white"/>
</mask>
<g mask="url(#mask0_20_4200)">
<path d="M44.0597 19.8942L45.4212 17.625H46.5938C47.3704 17.625 48 16.9954 48 16.2188C48 15.4421 47.3704 14.8125 46.5938 14.8125H44.625C44.131 14.8125 43.6733 15.0717 43.4192 15.4953L42.2742 17.4035L40.386 10.7947C39.6425 8.19244 37.233 6.375 34.5267 6.375H13.4733C10.767 6.375 8.35753 8.19244 7.614 10.7947L5.72578 17.4036L4.58081 15.4954C4.32666 15.0717 3.86897 14.8125 3.375 14.8125H1.40625C0.629625 14.8125 0 15.4421 0 16.2188C0 16.9954 0.629625 17.625 1.40625 17.625H2.57878L3.94031 19.8942C1.64006 20.7662 0 22.9915 0 25.5938V36.0938C0 36.8704 0.629625 37.5 1.40625 37.5H3.84375V39.8438C3.84375 41.653 5.31572 43.125 7.125 43.125H10.875C12.6843 43.125 14.1562 41.653 14.1562 39.8438V37.5H33.8438V39.8438C33.8438 41.653 35.3157 43.125 37.125 43.125H40.875C42.6843 43.125 44.1562 41.653 44.1562 39.8438V37.5H46.5938C47.3704 37.5 48 36.8704 48 36.0938V25.5938C48 22.9915 46.3599 20.7662 44.0597 19.8942ZM10.3183 11.5673C10.7186 10.1662 12.016 9.1875 13.4733 9.1875H34.5267C35.984 9.1875 37.2814 10.1662 37.6817 11.5673L39.9482 19.5H37.4523C36.799 16.2945 33.958 13.875 30.5625 13.875C27.167 13.875 24.3261 16.2945 23.6727 19.5H8.05181L10.3183 11.5673ZM26.5847 19.5C27.1651 17.863 28.7291 16.6875 30.5625 16.6875C32.3959 16.6875 33.9599 17.863 34.5403 19.5H26.5847ZM11.3438 39.8438C11.3438 40.1022 11.1335 40.3125 10.875 40.3125H7.125C6.86653 40.3125 6.65625 40.1022 6.65625 39.8438V37.5H11.3438V39.8438ZM19.7812 34.6875V30.75H28.2188V34.6875H19.7812ZM41.3438 39.8438C41.3438 40.1022 41.1335 40.3125 40.875 40.3125H37.125C36.8665 40.3125 36.6562 40.1022 36.6562 39.8438V37.5H41.3438V39.8438ZM45.1875 34.6875H31.0312V29.3438C31.0312 28.5671 30.4016 27.9375 29.625 27.9375H18.375C17.5984 27.9375 16.9688 28.5671 16.9688 29.3438V34.6875H2.8125V25.5938C2.8125 23.7845 4.28447 22.3125 6.09375 22.3125H6.18159C6.18403 22.3125 6.18638 22.3127 6.18881 22.3127C6.19116 22.3127 6.19341 22.3125 6.19575 22.3125H41.8042C41.8066 22.3125 41.8088 22.3127 41.8112 22.3127C41.8136 22.3127 41.816 22.3125 41.8184 22.3125H41.9062C43.7155 22.3125 45.1875 23.7845 45.1875 25.5938V34.6875Z" fill="#181A1F"/>
<path d="M38.0625 24.2812C35.7363 24.2812 33.8438 26.1738 33.8438 28.5C33.8438 30.8262 35.7363 32.7188 38.0625 32.7188C40.3887 32.7188 42.2812 30.8262 42.2812 28.5C42.2812 26.1738 40.3887 24.2812 38.0625 24.2812ZM38.0625 29.9062C37.2871 29.9062 36.6562 29.2754 36.6562 28.5C36.6562 27.7246 37.2871 27.0938 38.0625 27.0938C38.8379 27.0938 39.4688 27.7246 39.4688 28.5C39.4688 29.2754 38.8379 29.9062 38.0625 29.9062Z" fill="#181A1F"/>
<path d="M9.9375 24.2812C7.61128 24.2812 5.71875 26.1738 5.71875 28.5C5.71875 30.8262 7.61128 32.7188 9.9375 32.7188C12.2637 32.7188 14.1562 30.8262 14.1562 28.5C14.1562 26.1738 12.2637 24.2812 9.9375 24.2812ZM9.9375 29.9062C9.16209 29.9062 8.53125 29.2754 8.53125 28.5C8.53125 27.7246 9.16209 27.0938 9.9375 27.0938C10.7129 27.0938 11.3438 27.7246 11.3438 28.5C11.3438 29.2754 10.7129 29.9062 9.9375 29.9062Z" fill="#181A1F"/>
</g>
</g>
</g>
</g>
<defs>
<clipPath id="clip0_20_4200">
<rect width="48" height="48" fill="white" transform="translate(0 0.75)"/>
</clipPath>
<clipPath id="clip1_20_4200">
<rect width="48" height="48" fill="white" transform="translate(0 0.75)"/>
</clipPath>
<clipPath id="clip2_20_4200">
<rect width="48" height="48" fill="white" transform="translate(0 0.75)"/>
</clipPath>
</defs>
</svg>
