<svg width="14" height="15" viewBox="0 0 14 15" fill="none" xmlns="http://www.w3.org/2000/svg">
<g clip-path="url(#clip0_20_4035)">
<path fill-rule="evenodd" clip-rule="evenodd" d="M5.28577 0.733868C5.93273 0.733869 6.56516 0.925712 7.10302 1.28512C7.64089 1.64454 8.06003 2.15537 8.30741 2.75298C8.55479 3.35059 8.61929 4.00813 8.49276 4.6424C8.36623 5.27668 8.05434 5.85917 7.59656 6.3162C7.13879 6.77322 6.55569 7.08423 5.92106 7.20988C5.28643 7.33552 4.62877 7.27016 4.03131 7.02205C3.43384 6.77395 2.92342 6.35425 2.56462 5.81607C2.20582 5.27789 2.01476 4.6454 2.01563 3.99864C2.01563 3.13161 2.36016 2.30009 2.97343 1.687C3.5867 1.07392 4.41848 0.729492 5.28577 0.729492V0.733868Z" fill="#E8EDED"/>
<path fill-rule="evenodd" clip-rule="evenodd" d="M10.0706 12.6018C10.1126 12.7398 10.122 12.8857 10.0981 13.0279C10.0742 13.1702 10.0175 13.3049 9.93271 13.4216C9.84784 13.5382 9.73705 13.6336 9.60906 13.7002C9.48106 13.7668 9.33936 13.8028 9.19509 13.8053H1.40278C1.25851 13.8028 1.11681 13.7668 0.988811 13.7002C0.860817 13.6336 0.750027 13.5382 0.665161 13.4216C0.580294 13.3049 0.523666 13.1702 0.499733 13.0279C0.4758 12.8857 0.485215 12.7398 0.527237 12.6018L0.965008 11.1314C1.13822 10.5545 1.49283 10.0488 1.97623 9.68933C2.45963 9.32985 3.04606 9.13572 3.64854 9.13574H6.94933C7.55181 9.13572 8.13825 9.32985 8.62164 9.68933C9.10504 10.0488 9.45965 10.5545 9.63286 11.1314L10.0706 12.6018Z" fill="#E8EDED"/>
<path fill-rule="evenodd" clip-rule="evenodd" d="M8.72669 0.733398C9.37346 0.733398 10.0057 0.92513 10.5434 1.28435C11.0812 1.64357 11.5004 2.15414 11.7479 2.7515C11.9954 3.34885 12.0601 4.00617 11.934 4.64032C11.8078 5.27447 11.4963 5.85698 11.039 6.31418C10.5817 6.77138 9.99901 7.08273 9.36466 7.20887C8.73032 7.33501 8.0728 7.27027 7.47526 7.02284C6.87772 6.77541 6.36699 6.35639 6.00766 5.81878C5.64833 5.28117 5.45654 4.64912 5.45654 4.00254C5.45654 3.13551 5.80108 2.30399 6.41435 1.69091C7.02762 1.07783 7.85939 0.733398 8.72669 0.733398Z" fill="#181A1F"/>
<path fill-rule="evenodd" clip-rule="evenodd" d="M13.5028 12.6018C13.5448 12.7398 13.5542 12.8857 13.5303 13.0279C13.5064 13.1702 13.4498 13.3049 13.3649 13.4216C13.28 13.5382 13.1692 13.6336 13.0412 13.7002C12.9132 13.7668 12.7715 13.8028 12.6273 13.8053H4.84809C4.70382 13.8028 4.56212 13.7668 4.43412 13.7002C4.30613 13.6336 4.19534 13.5382 4.11047 13.4216C4.02561 13.3049 3.96898 13.1702 3.94505 13.0279C3.92111 12.8857 3.93053 12.7398 3.97255 12.6018L4.41032 11.1314C4.58353 10.5545 4.93814 10.0488 5.42154 9.68933C5.90494 9.32985 6.49137 9.13572 7.09385 9.13574H10.3946C10.9971 9.13572 11.5836 9.32985 12.067 9.68933C12.5504 10.0488 12.905 10.5545 13.0782 11.1314L13.5159 12.6018H13.5028Z" fill="#181A1F"/>
<path d="M12.61 14.2695H4.84835C4.62976 14.2698 4.41412 14.2191 4.21868 14.1212C4.02324 14.0233 3.85342 13.8811 3.72281 13.7058C3.5922 13.5306 3.50442 13.3273 3.4665 13.112C3.42857 12.8968 3.44155 12.6757 3.50439 12.4664L3.94216 10.996C4.14128 10.3214 4.55413 9.72966 5.1186 9.30979C5.68307 8.88992 6.36865 8.66462 7.07222 8.66778H10.373C11.0766 8.66462 11.7622 8.88992 12.3266 9.30979C12.8911 9.72966 13.3039 10.3214 13.5031 10.996L13.9408 12.4664C14.0034 12.6747 14.0165 12.8946 13.9793 13.1088C13.9421 13.323 13.8555 13.5256 13.7263 13.7006C13.5972 13.8755 13.4291 14.018 13.2354 14.1168C13.0416 14.2155 12.8275 14.2678 12.61 14.2695ZM7.0766 9.59995C6.57383 9.59742 6.08385 9.75822 5.6804 10.0581C5.27696 10.358 4.98188 10.7809 4.83959 11.2629L4.40182 12.7334C4.38168 12.8022 4.37763 12.8748 4.38998 12.9454C4.40234 13.0161 4.43076 13.083 4.47306 13.1409C4.51536 13.1988 4.57041 13.2463 4.63396 13.2796C4.69751 13.3129 4.76787 13.3311 4.83959 13.333H12.61C12.6817 13.3311 12.7521 13.3129 12.8156 13.2796C12.8792 13.2463 12.9342 13.1988 12.9765 13.1409C13.0188 13.083 13.0473 13.0161 13.0596 12.9454C13.072 12.8748 13.0679 12.8022 13.0478 12.7334L12.61 11.2629C12.4677 10.7809 12.1726 10.358 11.7692 10.0581C11.3658 9.75822 10.8758 9.59742 10.373 9.59995H7.0766ZM2.33555 14.2695H1.4031C1.1845 14.2698 0.968868 14.2191 0.773428 14.1212C0.577988 14.0233 0.408171 13.8811 0.277562 13.7058C0.146952 13.5306 0.0591727 13.3273 0.0212464 13.112C-0.0166798 12.8968 -0.00370117 12.6757 0.0591442 12.4664L0.496915 10.996C0.696242 10.3206 1.10974 9.72841 1.6751 9.30847C2.24045 8.88853 2.92703 8.66367 3.63135 8.66778C3.69637 8.66147 3.76199 8.66883 3.824 8.68939C3.88601 8.70994 3.94303 8.74323 3.9914 8.78713C4.03977 8.83102 4.07842 8.88454 4.10488 8.94426C4.13133 9.00397 4.14499 9.06855 4.14499 9.13386C4.14499 9.19917 4.13133 9.26375 4.10488 9.32347C4.07842 9.38318 4.03977 9.43671 3.9914 9.4806C3.94303 9.52449 3.88601 9.55778 3.824 9.57834C3.76199 9.59889 3.69637 9.60625 3.63135 9.59995C3.12858 9.59742 2.6386 9.75822 2.23515 10.0581C1.8317 10.358 1.53663 10.7809 1.39434 11.2629L0.956574 12.7334C0.936434 12.8022 0.932384 12.8748 0.944735 12.9454C0.957087 13.0161 0.98551 13.083 1.02781 13.1409C1.07011 13.1988 1.12516 13.2463 1.18871 13.2796C1.25226 13.3129 1.32261 13.3311 1.39434 13.333H2.33555C2.40057 13.3267 2.46619 13.334 2.5282 13.3546C2.59021 13.3751 2.64723 13.4084 2.6956 13.4523C2.74397 13.4962 2.78262 13.5497 2.80908 13.6094C2.83553 13.6691 2.84919 13.7337 2.84919 13.799C2.84919 13.8643 2.83553 13.9289 2.80908 13.9886C2.78262 14.0484 2.74397 14.1019 2.6956 14.1458C2.64723 14.1897 2.59021 14.223 2.5282 14.2435C2.46619 14.2641 2.40057 14.2714 2.33555 14.2651V14.2695ZM8.72699 7.73561C7.98844 7.73561 7.26648 7.51667 6.65239 7.10648C6.03831 6.69629 5.55969 6.11327 5.27706 5.43115C4.99443 4.74902 4.92048 3.99843 5.06456 3.27429C5.20865 2.55015 5.56429 1.88499 6.08653 1.36291C6.60876 0.84084 7.27413 0.485302 7.99849 0.341262C8.72285 0.197222 9.47367 0.271149 10.156 0.553693C10.8383 0.836238 11.4215 1.31471 11.8318 1.92861C12.2422 2.5425 12.4612 3.26425 12.4612 4.00257C12.46 4.99228 12.0662 5.94112 11.3662 6.64095C10.6661 7.34078 9.71701 7.73445 8.72699 7.73561ZM8.72699 1.2017C8.17287 1.2017 7.63118 1.36597 7.17044 1.67373C6.70969 1.98149 6.35059 2.41893 6.13853 2.93072C5.92648 3.44252 5.87099 4.00568 5.9791 4.549C6.0872 5.09231 6.35404 5.59138 6.74587 5.98309C7.1377 6.3748 7.63692 6.64156 8.1804 6.74963C8.72389 6.8577 9.28722 6.80223 9.79917 6.59024C10.3111 6.37825 10.7487 6.01926 11.0565 5.55865C11.3644 5.09805 11.5287 4.55653 11.5287 4.00257C11.5287 3.25933 11.2337 2.54647 10.7084 2.02051C10.1831 1.49455 9.47046 1.19848 8.72699 1.19732V1.2017ZM4.66886 7.67872H4.58131C3.72858 7.51405 2.95981 7.05774 2.40699 6.38812C1.85417 5.7185 1.5518 4.87736 1.5518 4.00914C1.5518 3.14091 1.85417 2.29978 2.40699 1.63016C2.95981 0.96054 3.72858 0.50422 4.58131 0.339555C4.70061 0.322454 4.82191 0.351978 4.91999 0.42199C5.01807 0.492001 5.08539 0.597112 5.10794 0.715465C5.13049 0.833819 5.10654 0.956308 5.04107 1.05746C4.9756 1.15862 4.87365 1.23065 4.75642 1.25859C4.11431 1.37916 3.53455 1.72028 3.11739 2.22294C2.70023 2.72559 2.4719 3.35819 2.4719 4.01133C2.4719 4.66446 2.70023 5.29706 3.11739 5.79972C3.53455 6.30238 4.11431 6.64349 4.75642 6.76406C4.86029 6.79478 4.9503 6.86054 5.01112 6.95014C5.07195 7.03974 5.09983 7.14765 5.09003 7.25549C5.08022 7.36333 5.03333 7.46444 4.95734 7.54161C4.88134 7.61878 4.78095 7.66723 4.67324 7.67872H4.66886Z" fill="#181A1F"/>
</g>
<defs>
<clipPath id="clip0_20_4035">
<rect width="14" height="14" fill="white" transform="translate(0 0.269531)"/>
</clipPath>
</defs>
</svg>
